# xmcd
#
# Track frame offsets:
#        187
#        32024
#        65399
#
# Disc length: 1234 seconds
#
# Revision: 0
# Processed by: cddbd v1.5.1PL0 Copyright (c) Steve Scherf et al.
# Submitted via: ExactAudioCopy v0.95a4
#
DISCID=1e04d003
DTITLE=Ultra-Takkyu vs Mijk-O-Zilla - 1st BATTLE CD
DYEAR=1900
DGENRE=Techno
TTITLE0=Liquid
TTITLE1=Grand
TTITLE2=Turbulence
EXTD=
EXTT0=
EXTT1=
EXTT2=
PLAYORDER=
